<svg width="568" height="917" viewBox="0 0 568 917" fill="none" xmlns="http://www.w3.org/2000/svg">
<path fill-rule="evenodd" clip-rule="evenodd" d="M-434.218 916.113V901.481H-384.662C-370.246 901.481 -356.691 899.361 -343.991 895.128L-343.983 895.125L-343.975 895.123C-330.512 890.916 -318.276 882.492 -307.274 869.797C-296.296 857.13 -286.957 838.489 -279.296 813.806L-279.295 813.799L-20.5315 0.361084L174.068 0.361084L459.716 816.315C459.717 816.318 459.718 816.321 459.719 816.324C467.373 836.731 476.286 853.271 486.443 865.972C496.604 877.823 508.017 886.694 520.679 892.604C534.209 898.521 548.586 901.481 563.818 901.481H567.294V916.113H103.382V901.481H155.498C175.061 901.481 188.41 898.07 195.829 891.491C203.295 884.015 207.062 874.03 207.062 861.437C207.062 855.552 206.222 849.664 204.538 843.769L204.518 843.701L204.509 843.631C203.661 836.841 202.388 830.051 200.69 823.259L200.687 823.247L200.684 823.236C198.985 815.587 196.86 807.938 194.309 800.287L194.307 800.279L194.304 800.271L125.386 580.753L-189.432 580.753L-251.946 777.226C-251.947 777.228 -251.947 777.23 -251.948 777.231C-255.36 788.321 -258.772 798.984 -262.185 809.223C-264.737 818.583 -266.863 827.514 -268.564 836.017C-270.26 844.499 -271.106 852.545 -271.106 860.157C-271.106 873.622 -267.327 884.025 -259.873 891.491C-252.449 898.074 -239.519 901.481 -220.822 901.481H-129.026V916.113H-434.218ZM-260.502 892.157C-268.182 884.477 -272.022 873.81 -272.022 860.157C-272.022 852.477 -271.168 844.37 -269.462 835.837C-267.755 827.304 -265.622 818.344 -263.062 808.957C-259.648 798.717 -256.235 788.05 -252.822 776.957L-190.102 579.837L126.058 579.837L195.178 799.997C197.738 807.677 199.872 815.357 201.578 823.037C203.285 829.864 204.565 836.69 205.418 843.517C207.125 849.49 207.978 855.464 207.978 861.437C207.978 874.237 204.138 884.477 196.458 892.157C188.778 898.984 175.125 902.397 155.498 902.397H104.298V915.197H566.378V902.397H563.818C548.458 902.397 533.952 899.41 520.298 893.437C507.498 887.464 495.978 878.504 485.738 866.557C475.498 853.757 466.538 837.117 458.858 816.637L173.418 1.27704L-19.8617 1.27704L-278.422 814.077C-286.102 838.824 -295.488 857.597 -306.582 870.397C-317.675 883.197 -330.048 891.73 -343.702 895.997C-356.502 900.264 -370.155 902.397 -384.662 902.397H-433.302V915.197H-129.942V902.397H-220.822C-239.595 902.397 -252.822 898.984 -260.502 892.157ZM31.7455 285.715L31.7449 285.713C26.6243 269.498 20.2238 249.016 12.5435 224.269L12.5392 224.255L12.5353 224.241C5.70984 199.498 -1.54236 173.902 -9.22131 147.452L-9.22345 147.445C-16.5638 121.346 -23.5141 97.1968 -30.0743 74.9976C-34.1114 89.4992 -38.5203 105.116 -43.3009 121.849L-43.3043 121.86C-48.4272 138.936 -53.9766 156.438 -59.9527 174.367C-65.9233 192.278 -71.894 210.617 -77.8647 229.382C-82.9868 247.308 -88.5355 265.235 -94.5109 283.161C-94.5115 283.163 -94.5121 283.165 -94.5127 283.167L-185.007 566.121L120.966 566.121L31.7455 285.715ZM122.218 567.037L-186.262 567.037L-95.3817 282.877C-89.4083 264.957 -83.8617 247.037 -78.7417 229.117C-72.7683 210.344 -66.795 191.997 -60.8217 174.077C-54.8484 156.157 -49.3017 138.664 -44.1817 121.597C-39.246 104.322 -34.7069 88.237 -30.5642 73.3411C-30.4095 72.7848 -30.2553 72.2301 -30.1017 71.677C-29.9384 72.2279 -29.775 72.78 -29.6113 73.3333C-22.9279 95.922 -15.838 120.543 -8.34167 147.197C-0.661652 173.65 6.59167 199.25 13.4183 223.997C21.0983 248.744 27.4983 269.224 32.6183 285.437L122.218 567.037Z" fill="white"/>
</svg>
