<svg xmlns="http://www.w3.org/2000/svg" width="821" height="1280" version="1.0"><g class="layer"><path fill="none" stroke="#fff" stroke-width=".6000000000000001" d="M602.5 1.1c-2.7.6-109.7 19.9-237.7 43-128 23-234.9 42.6-237.5 43.5C87.6 101 55.7 148.1 51 200.2c-.6 6.7-6.5 110.6-13.1 230.8-6.5 120.2-14.8 271.4-18.3 336C-1.9 1157.9-.5 1129.8.8 1140.8c1.7 13.6 4.4 23 9.8 33.9 4.8 9.8 14 20.9 21.8 26.2 5 3.4 148.8 73.5 156.6 76.3 3 1.1 9.1 2.2 13.5 2.5 7.4.5 26.7-2.9 247.4-42.7 149.3-26.9 241.8-44 245.7-45.4 12.3-4.5 21.2-10.5 33-22.1 12.2-12 18.5-20.7 26.2-36 18.9-37.7 21.1-81.4 5.7-113-5.1-10.6-11.8-19.2-19.5-25.1-6.3-4.9-152.5-76.3-161.8-79.1-12.1-3.6-14.5-3.2-143.5 20.1-66 12-120.1 21.5-120.4 21.2-.5-.5 7.4-149.6 7.9-150.2.2-.1 72.8-13.3 161.3-29.3 88.6-16 163.7-29.9 166.9-31.1 33.6-11.6 62.8-49.3 72.8-94 2-9 2.3-13.2 2.3-30 0-23.4-1.6-31.5-9.7-48-4.4-9.1-6.2-11.6-13.7-19l-8.6-8.6-76.5-37.1c-42.1-20.4-78.9-37.8-81.9-38.7-11.7-3.4-17.1-2.7-109.4 13.9-47.3 8.5-86.2 15.3-86.4 15.1-.5-.4 7.6-149.8 8.1-150.3.1-.2 87.8-16.1 194.7-35.3C650 295.7 740.4 279 744 277.8c13.7-4.4 25.3-12.2 37.8-25.2 23.5-24.6 37.3-57.9 38.9-93.7 1.5-33.5-9.8-63.2-29.9-78.2-5.7-4.2-148.4-74.2-159.1-78-6.2-2.2-21.8-3.1-29.2-1.6z"/></g></svg>