<svg width="315" height="885" viewBox="0 0 315 885" fill="none" xmlns="http://www.w3.org/2000/svg">
<path fill-rule="evenodd" clip-rule="evenodd" d="M47.8491 673.506L47.8448 673.497C16.5706 606.939 0.949951 529.188 0.949951 440.271C0.949951 351.355 16.5705 274.003 47.8469 208.242L47.8511 208.233C79.939 142.453 127.679 91.5028 191.054 55.4029C255.245 18.4943 335.428 0.0714111 431.55 0.0714111C522.882 0.0714111 600.264 18.498 663.649 55.4049C727.022 91.5046 775.159 142.852 808.044 209.424C840.927 275.189 857.35 352.548 857.35 441.471C857.35 530.395 840.927 608.152 808.047 674.714L808.044 674.719C775.156 740.496 726.618 791.841 662.448 828.738C599.063 865.645 521.681 884.071 430.35 884.071C334.227 884.071 254.44 865.648 191.047 828.736C127.673 791.834 79.935 740.084 47.8491 673.506ZM661.95 827.871C725.95 791.071 774.35 739.871 807.15 674.271C839.95 607.871 856.35 530.271 856.35 441.471C856.35 352.671 839.95 275.471 807.15 209.871C774.35 143.471 726.35 92.2714 663.15 56.2714C599.95 19.4714 522.75 1.07141 431.55 1.07141C335.55 1.07141 255.55 19.4714 191.55 56.2714C128.35 92.2714 80.75 143.071 48.75 208.671C17.5499 274.271 1.94995 351.471 1.94995 440.271C1.94995 529.071 17.5499 606.671 48.75 673.071C80.75 739.471 128.35 791.071 191.55 827.871C254.75 864.671 334.35 883.071 430.35 883.071C521.55 883.071 598.75 864.671 661.95 827.871ZM565.026 109.454L565.023 109.447C551.473 75.9693 533.578 51.7557 511.388 36.6989L511.381 36.6941L511.375 36.6892C489.976 21.631 463.388 14.0714 431.55 14.0714C398.912 14.0714 371.113 21.6312 348.105 36.7032C325.914 51.7637 307.62 75.9813 293.272 109.459C279.723 142.138 269.738 186.033 263.344 241.182C257.749 295.535 254.95 362.296 254.95 441.471C254.95 520.647 257.749 587.808 263.344 642.962C269.738 698.105 279.721 742.4 293.271 775.882C307.619 808.558 325.913 832.381 348.111 847.444C370.313 862.51 397.707 870.071 430.35 870.071C462.187 870.071 489.183 862.512 511.388 847.444C533.583 832.384 551.476 808.566 565.024 775.893C578.575 742.415 588.16 698.119 593.755 642.97L593.756 642.963L593.757 642.956C600.151 587.807 603.35 520.648 603.35 441.471C603.35 362.295 600.151 295.537 593.757 241.188L593.756 241.18L593.755 241.172C588.16 186.021 578.574 142.129 565.026 109.454ZM565.95 776.271C552.35 809.071 534.35 833.071 511.95 848.271C489.55 863.471 462.35 871.071 430.35 871.071C397.55 871.071 369.95 863.471 347.55 848.271C325.15 833.071 306.75 809.071 292.35 776.271C278.75 742.671 268.75 698.271 262.35 643.071C256.75 587.871 253.95 520.671 253.95 441.471C253.95 362.271 256.75 295.471 262.35 241.071C268.75 185.871 278.75 141.871 292.35 109.071C306.75 75.4714 325.15 51.0714 347.55 35.8714C370.75 20.6714 398.75 13.0714 431.55 13.0714C463.55 13.0714 490.35 20.6714 511.95 35.8714C534.35 51.0714 552.35 75.4714 565.95 109.071C579.55 141.871 589.15 185.871 594.75 241.071C601.15 295.471 604.35 362.271 604.35 441.471C604.35 520.671 601.15 587.871 594.75 643.071C589.15 698.271 579.55 742.671 565.95 776.271Z" fill="white"/>
</svg>
